<mxfile host="app.diagrams.net" modified="2023-12-31T04:39:32.268Z" agent="Mozilla/5.0 (Macintosh; Intel Mac OS X 10_15_7) AppleWebKit/537.36 (KHTML, like Gecko) Chrome/120.0.0.0 Safari/537.36" etag="dUgHG7nNuT98BfGnGjh0" version="22.1.16" type="device">
  <diagram name="FrontEnd UI" id="0gMKjP93jqSMQHA1J2F7">
    <mxGraphModel dx="714" dy="739" grid="0" gridSize="10" guides="1" tooltips="1" connect="1" arrows="1" fold="1" page="0" pageScale="1" pageWidth="827" pageHeight="1169" math="0" shadow="0">
      <root>
        <mxCell id="0" />
        <mxCell id="1" parent="0" />
      </root>
    </mxGraphModel>
  </diagram>
</mxfile>
